<svg id="Capa_1" data-name="Capa 1" xmlns="http://www.w3.org/2000/svg" viewBox="0 0 58.75826 58.75013"><defs><style>.cls-1{fill:#ff3778;stroke:#ff3778;stroke-miterlimit:10;stroke-width:2px;}</style></defs><title>clock</title><path class="cls-1" d="M56.61457,19.437A28.57038,28.57038,0,0,0,30.45375,2.105a27.60284,27.60284,0,0,0-11.01508,2.2607A27.90986,27.90986,0,0,0,4.358,19.437a28.347,28.347,0,0,0,0,22.05807A27.90981,27.90981,0,0,0,19.43864,56.57569,27.60282,27.60282,0,0,0,30.45375,58.855,28.54246,28.54246,0,0,0,56.61457,41.51369,27.99367,27.99367,0,0,0,56.61457,19.437ZM52.08387,42.9836a24.89563,24.89563,0,0,1-9.12652,9.08931,24.4397,24.4397,0,0,1-12.45711,3.34918,24.03038,24.03038,0,0,1-9.68472-1.9816,25.37,25.37,0,0,1-7.945-5.30287,25.22148,25.22148,0,0,1-5.30288-7.97291,24.43066,24.43066,0,0,1-1.95369-9.71262,24.393,24.393,0,0,1,3.32128-12.4757,24.98385,24.98385,0,0,1,43.19512,0A24.86571,24.86571,0,0,1,52.08387,42.9836Z" transform="translate(-1.12449 -1.10489)"/><path class="cls-1" d="M32.24927,30.2009V14.12483a1.78622,1.78622,0,0,0-1.79553-1.73971,1.749,1.749,0,0,0-1.70249,1.73971V30.45209a1.41489,1.41489,0,0,1,.06513.25119,1.61875,1.61875,0,0,0,.46516,1.39549L38.58483,41.402a1.76762,1.76762,0,0,0,2.39095,0,1.67463,1.67463,0,0,0,.05119-2.36768q-0.025-.02614-0.05119-0.05118Z" transform="translate(-1.12449 -1.10489)"/></svg>