<?xml version="1.0" encoding="utf-8"?>
<!-- Generator: Adobe Illustrator 19.2.1, SVG Export Plug-In . SVG Version: 6.00 Build 0)  -->
<svg version="1.1" id="svg4145" xmlns="http://www.w3.org/2000/svg" xmlns:xlink="http://www.w3.org/1999/xlink" x="0px" y="0px"
	 viewBox="0 0 718.7 412.4" style="enable-background:new 0 0 718.7 412.4;" xml:space="preserve">
<style type="text/css">
	.st0{fill:#FF3778;}
	.st1{fill:#FFFFFF;}
</style>
<title>eye</title>
<path id="path4225" class="st0" d="M356.7,0C240.7,0.3,121.9,59.5,0,187.7c239.6,313.4,479.1,285.4,718.7,0
	C604.3,69.9,487.5,3.8,367.9,0.2C364.2,0.1,360.4,0,356.7,0z M357.4,56.6c2.7,0,5.4,0,8.1,0.1c86.8,2.6,171.5,50.6,254.4,136
	c-173.8,207.1-347.6,227.4-521.4,0C187.1,99.8,273.2,56.8,357.4,56.6L357.4,56.6z M360.2,87.5c-59.7,0-108,53.8-108,120.2l0,0
	c0,66.4,48.4,120.2,108,120.3l0,0c59.7,0,108-53.8,108-120.2l0,0c0-10-1.2-20-3.4-29.7l-104.6,29.7c0,0,45.1-69.7,63.4-97.2
	C405.2,95.6,383,87.5,360.2,87.5z"/>
<circle class="st0" cx="360.3" cy="207.7" r="120.3"/>
<circle class="st1" cx="417" cy="139" r="44.2"/>
</svg>
