<?xml version="1.0" encoding="utf-8"?>
<!-- Generator: Adobe Illustrator 19.2.1, SVG Export Plug-In . SVG Version: 6.00 Build 0)  -->
<svg version="1.1" id="레이어_1" xmlns="http://www.w3.org/2000/svg" xmlns:xlink="http://www.w3.org/1999/xlink" x="0px"
	 y="0px" viewBox="0 0 60.2 56.7" style="enable-background:new 0 0 60.2 56.7;" xml:space="preserve">
<style type="text/css">
	.st0{fill:#828282;}
</style>
<title>heart</title>
<path class="st0" d="M49.4,22.6c-0.5-2.2-1.5-4.2-3.1-5.8c-1.3-1.3-3-2.1-4.8-2.5c-1.6-0.4-3.3-0.3-4.9,0.3
	c-0.5,0.2-0.9,0.5-1.3,0.8c-2.1,1.7-3.8,3.8-5.2,6.2v0.1v-0.1c-1.4-2.3-3.1-4.4-5.2-6.2c-0.4-0.3-0.9-0.6-1.3-0.8
	c-1.5-0.6-3.3-0.8-4.9-0.3c-1.8,0.4-3.4,1.3-4.8,2.5c-1.6,1.6-2.7,3.6-3.1,5.8c-0.3,1.2-1.3,4.9,0.3,8.2c0.4,0.8,0.9,1.6,1.5,2.3
	c0.7,0.9,1.5,1.7,2.4,2.4c1.1,0.9,2.2,1.6,3.4,2.3c1.8,1.2,2.2,1.3,3.2,1.9c2.4,1.4,4.6,3.3,6.3,5.5c0.9,1.1,1.6,2.3,2.2,3.5l0,0
	c0.6-1.2,1.3-2.4,2.2-3.5c1.8-2.2,3.9-4,6.3-5.5c1-0.6,1.3-0.8,3.2-1.9c1.2-0.7,2.3-1.5,3.4-2.3c0.9-0.7,1.7-1.5,2.4-2.4
	c0.6-0.7,1.1-1.5,1.5-2.3C50.7,27.5,49.7,23.7,49.4,22.6z"/>
</svg>
