<svg id="레이어_1" data-name="레이어 1" xmlns="http://www.w3.org/2000/svg" viewBox="0 0 9 10"><defs><style>.cls-1{fill:#231815;}</style></defs><title>icon_x</title><path class="cls-1" d="M0.62157,0.73924A0.43558,0.43558,0,0,1,.50069.53781,0.2411,0.2411,0,0,1,.6963.5H1.58149a1.342,1.342,0,0,1,.14883.00616,0.27393,0.27393,0,0,1,.09326.02507,0.26536,0.26536,0,0,1,.07928.06949c0.0279,0.03342.06369,0.07565,0.10723,0.12622L4.87967,4.371a0.29483,0.29483,0,0,0,.14883.11963,0.17313,0.17313,0,0,0,.13062-0.09455l2.8322-3.66918A1.36416,1.36416,0,0,1,8.09855.59451,0.27031,0.27031,0,0,1,8.18239.53118,0.32068,0.32068,0,0,1,8.27532.50611,1.226,1.226,0,0,1,8.41993.49995H9.30508a0.2411,0.2411,0,0,1,.19561.03782,0.43447,0.43447,0,0,1-.1212.20143L5.55038,5.72028a0.59619,0.59619,0,0,1-.13973.15128,0.48734,0.48734,0,0,1-.19561.02507H4.78636a0.48518,0.48518,0,0,1-.19561-0.02507A0.58447,0.58447,0,0,1,4.451,5.72028Z" transform="translate(-0.50069 -0.49324)"/><path class="cls-1" d="M9.37976,10.24724a0.43561,0.43561,0,0,1,.12088.20143,0.24111,0.24111,0,0,1-.19561.03782H8.41988A1.342,1.342,0,0,1,8.271,10.48032a0.274,0.274,0,0,1-.09326-0.02507,0.26539,0.26539,0,0,1-.07928-0.06949c-0.0279-.03342-0.06369-0.07565-0.10723-0.12622L5.1217,6.61548a0.29483,0.29483,0,0,0-.14883-0.11963,0.17313,0.17313,0,0,0-.13062.09455L2.01,10.25958a1.36394,1.36394,0,0,1-.10723.13238,0.27033,0.27033,0,0,1-.08384.06333,0.32074,0.32074,0,0,1-.09294.02507,1.22642,1.22642,0,0,1-.1446.00616H0.6963a0.24111,0.24111,0,0,1-.19561-0.03782,0.43446,0.43446,0,0,1,.1212-0.20143L4.451,5.2662a0.59619,0.59619,0,0,1,.13973-0.15128,0.48734,0.48734,0,0,1,.19561-0.02507h0.4286a0.48518,0.48518,0,0,1,.19561.02507,0.58447,0.58447,0,0,1,.13973.15128Z" transform="translate(-0.50069 -0.49324)"/></svg>