<svg id="레이어_1" data-name="레이어 1" xmlns="http://www.w3.org/2000/svg" viewBox="0 0 55.25 55.25"><defs><style>.cls-1,.cls-3{fill:none;stroke-miterlimit:10;}.cls-1{stroke:#eaeaea;}.cls-2{fill:#ccc;}.cls-3{stroke:#ccc;fill-rule:evenodd;}</style></defs><title>icon_photo</title><rect class="cls-1" x="0.5" y="0.5" width="54.25" height="54.25"/><path class="cls-2" d="M65.43848,39.793H62.59473V38.84033h2.84375V35.78662h1.02246v3.05371h2.84375V39.793H66.46094v3.06738H65.43848V39.793Z" transform="translate(-22.375 -22.375)"/><path class="cls-3" d="M53.04692,48.75068a3.95139,3.95139,0,0,0-1.41063-.98354,3.63787,3.63787,0,0,0-1.65383-.33058,4.28724,4.28724,0,0,0-1.63564.33058,4.75988,4.75988,0,0,0-1.306.98354,2.12325,2.12325,0,0,0-.87043,1.30567,4.41378,4.41378,0,0,0-.43557,1.62786,4.45274,4.45274,0,0,0,.43557,1.645,2.76792,2.76792,0,0,0,.87043,1.41877,8.67764,8.67764,0,0,0,1.306.87044,4.43856,4.43856,0,0,0,1.63564.32212,3.75678,3.75678,0,0,0,1.65383-.32212,6.07116,6.07116,0,0,0,1.41063-.87044,3.99537,3.99537,0,0,0,.888-1.41877,4.59707,4.59707,0,0,0,.31334-1.645,4.54253,4.54253,0,0,0-.31334-1.62786,2.83074,2.83074,0,0,0-.888-1.30567h0ZM40.04271,44.48553a1.119,1.119,0,0,1,1.20135,1.097,1.20136,1.20136,0,0,1-2.40264,0,1.12826,1.12826,0,0,1,1.20129-1.097h0Zm9.93975,0.87923a5.43235,5.43235,0,0,1,2.40272.54832h0a5.42948,5.42948,0,0,1,2.08929,1.30573h0a6.012,6.012,0,0,1,1.41,2.0718h0a5.8308,5.8308,0,0,1,.45246,2.39359,5.76451,5.76451,0,0,1-.45246,2.40231h0a6.122,6.122,0,0,1-1.41,2.08025h0a5.63728,5.63728,0,0,1-2.08929,1.30573h0a5.55044,5.55044,0,0,1-2.40272.54865,6.58139,6.58139,0,0,1-2.402-.54865h0a6.37928,6.37928,0,0,1-1.94958-1.30573h0a6.43573,6.43573,0,0,1-1.42762-2.08025h0a5.75857,5.75857,0,0,1-.43556-2.40231,5.82107,5.82107,0,0,1,.43556-2.39359h0a6.31557,6.31557,0,0,1,1.42762-2.0718h0a6.09034,6.09034,0,0,1,1.94958-1.30573h0a6.41318,6.41318,0,0,1,2.402-.54832h0ZM37.76229,43.0667a1.67117,1.67117,0,0,0-1.63691,1.64536V58.56948a1.79262,1.79262,0,0,0,1.74089,1.741H62.11682a1.73827,1.73827,0,0,0,1.7578-1.741V44.71206A1.594,1.594,0,0,0,62.343,43.0667h-6.4585l-0.43489-2.28921a1.2842,1.2842,0,0,0-1.306-1.08792H45.94417a1.28216,1.28216,0,0,0-1.3054,1.08792L44.20322,43.0667H37.76229Z" transform="translate(-22.375 -22.375)"/></svg>