<svg id="레이어_1" data-name="레이어 1" xmlns="http://www.w3.org/2000/svg" viewBox="0 0 5.40474 8.99995"><defs><style>.cls-1{fill:#231815;}</style></defs><title>icon_next_b</title><path class="cls-1" d="M2.04353,9.55163a0.43561,0.43561,0,0,1-.20143.12088A0.24111,0.24111,0,0,1,1.80428,9.4769V8.59175a1.34208,1.34208,0,0,1,.00617-0.14888,0.274,0.274,0,0,1,.02507-0.09326A0.26539,0.26539,0,0,1,1.905,8.27033c0.03342-.0279.07565-0.06369,0.12622-0.10723L5.67529,5.29357a0.29483,0.29483,0,0,0,.11963-0.14883,0.17313,0.17313,0,0,0-.09455-0.13062L2.03119,2.18187a1.36393,1.36393,0,0,1-.13238-0.10723A0.27034,0.27034,0,0,1,1.83549,1.9908a0.32074,0.32074,0,0,1-.02507-0.09294,1.22635,1.22635,0,0,1-.00616-0.1446V0.86817A0.24111,0.24111,0,0,1,1.84208.67256a0.43446,0.43446,0,0,1,.20143.1212L7.02457,4.62287a0.59618,0.59618,0,0,1,.15128.13973,0.48734,0.48734,0,0,1,.02507.19561v0.4286a0.48518,0.48518,0,0,1-.02507.19561,0.58447,0.58447,0,0,1-.15128.13973Z" transform="translate(-1.79763 -0.67256)"/></svg>