<?xml version="1.0" encoding="utf-8"?>
<!-- Generator: Adobe Illustrator 19.2.1, SVG Export Plug-In . SVG Version: 6.00 Build 0)  -->
<svg version="1.1" id="레이어_1" xmlns="http://www.w3.org/2000/svg" xmlns:xlink="http://www.w3.org/1999/xlink" x="0px"
	 y="0px" viewBox="0 0 52.2 53.8" style="enable-background:new 0 0 52.2 53.8;" xml:space="preserve">
<style type="text/css">
	.st0{fill:#FF3778;}
	.st1{fill:#FFFFFF;stroke:#FF3778;stroke-width:2;stroke-miterlimit:10;}
	.st2{fill:#FFFFFF;}
	.st3{fill:#FF3778;stroke:#FFFFFF;stroke-width:2;stroke-linecap:round;stroke-linejoin:round;}
</style>
<title>img_people</title>
<g>
	<path class="st0" d="M34.2,31.5c0-0.1,0-5,0-7.6c0-12.6-7.1-22.8-15.8-22.8C9.7,1.1,2.7,11.3,2.7,23.9c0,1.5,0.1,6.3,0.3,7.7
		c0,0,0.4,6.3-1.4,11C0.1,46.5,2.3,51,6,51.7c1.9,0.4,4.1,0.6,6.5,0.8c7,0.4,13.6,0.3,19.4-1c3.8-0.9,5.7-5.5,4.1-9.5
		C35,39.7,34.3,36.4,34.2,31.5z"/>
	<path class="st1" d="M19.2,41.4c-6.4,0-12.2,1.6-16.1,4c-3.1,1.9-1.7,6.7,2,6.7c7.4,0,19.2,0,27,0c4.1,0,5.5-5.5,1.9-7.4
		C30.3,42.7,25,41.4,19.2,41.4z"/>
	<polygon class="st2" points="24,43.8 13.1,43.8 12.9,36.9 24.3,36.9 	"/>
	<g>
		<path class="st2" d="M18.2,38.4c-5.6,0-10.7-4.3-13-10.8L5,27.1L5.5,27c2.9-0.6,5.3-1.5,7.3-2.7c3.2-1.9,5.5-4.6,6.3-7.6l1,0.2
			c-0.8,3.5-2.8,6.7-5.6,9c1.5-0.3,2.9-0.8,4-1.5c1.5-1.1,2.8-2.8,3.6-5c0.8-2,1.2-4.1,1.5-6.2l1,0.2c-0.2,1.2,0.3,2.6,0.8,3.8
			l0.1,0.2c0.3,0.8,0.6,1.6,1,2.4c0.4,0.7,1,1.5,1.9,2.3c0.7,0.7,1.6,1.5,2.7,1.8c0.1,0,0.3,0.1,0.4,0.1l0.5,0.1v0.5
			C30.4,32.7,24.7,38.4,18.2,38.4z"/>
		<path class="st0" d="M24.1,13.2c-0.2,1.4,0.4,2.9,0.9,4.3c0.3,0.8,0.6,1.7,1.1,2.5c0.5,0.9,1.2,1.7,2,2.4c0.8,0.8,1.8,1.6,2.9,1.9
			c0.2,0.1,0.4,0.1,0.6,0.1c-1.5,7.7-6.9,13.5-13.3,13.5c-5.6,0-10.4-4.3-12.5-10.5c2.6-0.6,5.1-1.4,7.4-2.7c3-1.8,5.6-4.5,6.5-7.9
			c-0.9,4-3.4,7.5-6.8,9.7c2.1-0.1,4.3-0.6,6-1.8c1.8-1.3,3-3.2,3.8-5.2C23.3,17.5,23.7,15.4,24.1,13.2 M23.1,13.1
			c-0.4,2.1-0.7,4.2-1.5,6.1c-0.8,2.1-2,3.7-3.4,4.7c-0.6,0.4-1.2,0.7-1.9,1c2.1-2.2,3.6-4.9,4.3-7.9l-1.9-0.5c-0.8,2.9-3,5.5-6,7.3
			c-1.9,1.1-4.3,2-7.1,2.6l-1.1,0.2l0.4,1.1c2.4,6.8,7.6,11.2,13.4,11.2c6.8,0,12.7-5.9,14.3-14.3l0.2-1l-1-0.2h-0.1
			c-0.1,0-0.3-0.1-0.4-0.1c-1-0.3-1.9-1.1-2.5-1.7c-0.8-0.8-1.4-1.5-1.8-2.2c-0.4-0.7-0.7-1.5-1-2.3L25.8,17
			c-0.4-1.2-0.9-2.5-0.7-3.6L23.1,13.1L23.1,13.1z"/>
	</g>
</g>
<g>
	<path class="st3" d="M43.5,35.8h-3c-1.1,0-1.9-0.9-1.8-2l0.9-11.2c0.1-1,0.9-1.7,1.8-1.7h1.1c1,0,1.8,0.7,1.8,1.7l0.9,11.2
		C45.5,34.9,44.6,35.8,43.5,35.8z"/>
	<path class="st3" d="M42.1,52.9h4.9c0.8,0,3.9-1.8,3.9-7.3c0-5.5-5.3-9.5-5.3-9.5H42l0,0h-3.6c0,0-5.3,3.9-5.3,9.5s3.1,7.3,3.9,7.3
		H42.1L42.1,52.9z"/>
	<path class="st2" d="M39.3,38.1h-0.6c0,0-2.1,1.9-2.9,6.3c0,0-0.5,3.9,0.7,3.9c1.2,0.1,1.3,0.1,1.3,0.1c0.6,0,0.8-1.1,0.8-1.7
		c0.1-1.8,0-2.9,0.3-4.6c0.2-1.1,0.7-2.9,1.2-4C40.3,38.1,39.3,38.1,39.3,38.1z"/>
</g>
</svg>
