<?xml version="1.0" encoding="utf-8"?>
<!-- Generator: Adobe Illustrator 19.2.1, SVG Export Plug-In . SVG Version: 6.00 Build 0)  -->
<svg version="1.1" id="레이어_1" xmlns="http://www.w3.org/2000/svg" xmlns:xlink="http://www.w3.org/1999/xlink" x="0px"
	 y="0px" viewBox="0 0 52.2 53.8" style="enable-background:new 0 0 52.2 53.8;" xml:space="preserve">
<style type="text/css">
	.st0{fill:#FF3778;}
	.st1{fill:#FFFFFF;stroke:#FF3778;stroke-width:2;stroke-miterlimit:10;}
	.st2{fill:#FFFFFF;}
</style>
<title>img_people</title>
<g>
	<path class="st0" d="M36,31.5c0-0.1,0-5,0-7.6c0-12.6-7.1-22.8-15.8-22.8c-8.7,0-15.7,10.2-15.7,22.8c0,1.5,0.1,6.3,0.3,7.7
		c0,0,0.4,6.3-1.4,11c-1.5,3.9,0.7,8.4,4.4,9.1c1.9,0.4,4.1,0.6,6.5,0.8c7,0.4,13.6,0.3,19.4-1c3.8-0.9,5.7-5.5,4.1-9.5
		C36.8,39.7,36.1,36.4,36,31.5z"/>
	<path class="st1" d="M21,41.4c-6.4,0-12.2,1.6-16.1,4c-3.1,1.9-1.7,6.7,2,6.7c7.4,0,19.2,0,27,0c4.1,0,5.5-5.5,1.9-7.4
		C32.1,42.7,26.8,41.4,21,41.4z"/>
	<polygon class="st2" points="25.8,43.8 14.9,43.8 14.7,36.9 26.1,36.9 	"/>
	<g>
		<path class="st2" d="M20,38.4c-5.6,0-10.7-4.3-13-10.8l-0.2-0.5L7.3,27c2.9-0.6,5.3-1.5,7.3-2.7c3.2-1.9,5.5-4.6,6.3-7.6l1,0.2
			c-0.8,3.5-2.8,6.7-5.6,9c1.5-0.3,2.9-0.8,4-1.5c1.5-1.1,2.8-2.8,3.6-5c0.8-2,1.2-4.1,1.5-6.2l1,0.2c-0.2,1.2,0.3,2.6,0.8,3.8
			l0.1,0.2c0.3,0.8,0.6,1.6,1,2.4c0.4,0.7,1,1.5,1.9,2.3c0.7,0.7,1.6,1.5,2.7,1.8c0.1,0,0.3,0.1,0.4,0.1l0.5,0.1v0.5
			C32.2,32.7,26.5,38.4,20,38.4z"/>
		<path class="st0" d="M25.9,13.2c-0.2,1.4,0.4,2.9,0.9,4.3c0.3,0.8,0.6,1.7,1.1,2.5c0.5,0.9,1.2,1.7,2,2.4c0.8,0.8,1.8,1.6,2.9,1.9
			c0.2,0.1,0.4,0.1,0.6,0.1c-1.5,7.7-6.9,13.5-13.3,13.5c-5.6,0-10.4-4.3-12.5-10.5c2.6-0.6,5.1-1.4,7.4-2.7c3-1.8,5.6-4.5,6.5-7.9
			c-0.9,4-3.4,7.5-6.8,9.7c2.1-0.1,4.3-0.6,6-1.8c1.8-1.3,3-3.2,3.8-5.2C25.1,17.5,25.5,15.4,25.9,13.2 M24.9,13.1
			c-0.4,2.1-0.7,4.2-1.5,6.1c-0.8,2.1-2,3.7-3.4,4.7c-0.6,0.4-1.2,0.7-1.9,1c2.1-2.2,3.6-4.9,4.3-7.9l-1.9-0.5c-0.8,2.9-3,5.5-6,7.3
			c-1.9,1.1-4.3,2-7.1,2.6l-1.1,0.2l0.4,1.1c2.4,6.8,7.6,11.2,13.4,11.2c6.8,0,12.7-5.9,14.3-14.3l0.2-1l-1-0.2h-0.1
			c-0.1,0-0.3-0.1-0.4-0.1c-1-0.3-1.9-1.1-2.5-1.7c-0.8-0.8-1.4-1.5-1.8-2.2c-0.4-0.7-0.7-1.5-1-2.3L27.6,17
			c-0.4-1.2-0.9-2.5-0.7-3.6L24.9,13.1L24.9,13.1z"/>
	</g>
</g>
<g>
	<path class="st0" d="M38.4,52.7c-0.6,0-1-0.4-1-1v-7.5h-5.6v7.5c0,0.6-0.4,1-1,1h-5.6c-0.6,0-1-0.4-1-1V38.3h-4.9
		c-0.4,0-0.8-0.3-0.9-0.7c-0.1-0.4,0-0.8,0.3-1.1l15.3-13.2c0.2-0.2,0.4-0.2,0.7-0.2s0.5,0.1,0.7,0.2l15.3,13.2
		c0.3,0.3,0.4,0.7,0.3,1.1c-0.1,0.4-0.5,0.7-0.9,0.7h-4.8v13.4c0,0.6-0.4,1-1,1H38.4z"/>
	<path class="st2" d="M34.6,24.1l15.3,13.2h-5.8v14.4h-5.8v-8.5h-7.6v8.5h-5.6V37.3h-5.9L34.6,24.1 M34.6,22.1
		c-0.5,0-0.9,0.2-1.3,0.5L18,35.8c-0.6,0.5-0.9,1.4-0.6,2.2c0.3,0.8,1,1.3,1.9,1.3h3.9v12.4c0,1.1,0.9,2,2,2h5.6c1.1,0,2-0.9,2-2
		v-6.5h3.6v6.5c0,1.1,0.9,2,2,2h5.8c1.1,0,2-0.9,2-2V39.3h3.8c0.8,0,1.6-0.5,1.9-1.3c0.3-0.8,0.1-1.7-0.6-2.2L35.9,22.6
		C35.5,22.3,35.1,22.1,34.6,22.1L34.6,22.1z"/>
</g>
</svg>
