<?xml version="1.0" encoding="utf-8"?>
<!-- Generator: Adobe Illustrator 19.2.1, SVG Export Plug-In . SVG Version: 6.00 Build 0)  -->
<svg version="1.1" id="레이어_1" xmlns="http://www.w3.org/2000/svg" xmlns:xlink="http://www.w3.org/1999/xlink" x="0px"
	 y="0px" viewBox="0 0 60.2 56.7" style="enable-background:new 0 0 60.2 56.7;" xml:space="preserve">
<style type="text/css">
	.st0{fill:#828282;}
</style>
<title>star</title>
<path class="st0" d="M41.2,46.7l-10.5-5.5c-0.4-0.2-0.9-0.2-1.3,0L19,46.7c-0.7,0.3-1.5,0-1.9-0.7c-0.1-0.3-0.2-0.5-0.1-0.8l2-11.7
	c0.1-0.5-0.1-0.9-0.4-1.3L10,24.1c-0.6-0.5-0.6-1.4,0-2c0.2-0.2,0.5-0.4,0.8-0.4L22.5,20c0.5-0.1,0.9-0.4,1.1-0.8l5.2-10.6
	c0.5-0.7,0.6-0.9,1.3-0.9c0.7,0,1,0.5,1.2,0.8l5.2,10.6c0.2,0.4,0.6,0.7,1.1,0.8l11.7,1.7c0.8,0.1,1.3,0.8,1.2,1.6
	c0,0.3-0.2,0.6-0.4,0.8l-8.5,8.3c-0.3,0.3-0.5,0.8-0.4,1.3l2,11.7c0.1,0.8-0.4,1.5-1.1,1.6C41.8,46.9,41.5,46.8,41.2,46.7z"/>
</svg>
