<svg id="레이어_1" data-name="레이어 1" xmlns="http://www.w3.org/2000/svg" viewBox="0 0 24.67 25.07"><defs><style>.cls-1{fill:#fff;}</style></defs><title>write_icon</title><path class="cls-1" d="M18,31a0.5,0.5,0,0,1-.5-0.5V20.42H7.7a0.5,0.5,0,0,1-.5-0.5v-2a0.5,0.5,0,0,1,.5-0.5h9.8v-10a0.5,0.5,0,0,1,.5-0.5h2.14a0.5,0.5,0,0,1,.5.5v10h9.73a0.5,0.5,0,0,1,.5.5v2a0.5,0.5,0,0,1-.5.5H20.61V30.53a0.5,0.5,0,0,1-.5.5H18Z" transform="translate(-6.7 -6.48)"/><path class="cls-1" d="M20.11,7.48V17.93H30.33v2H20.11v10.6H18V19.92H7.67v-2H18V7.48h2.14m0-1H18a1,1,0,0,0-1,1v9.46H7.7a1,1,0,0,0-1,1v2a1,1,0,0,0,1,1H17v9.61a1,1,0,0,0,1,1h2.14a1,1,0,0,0,1-1V20.92h9.23a1,1,0,0,0,1-1v-2a1,1,0,0,0-1-1H21.11V7.48a1,1,0,0,0-1-1h0Z" transform="translate(-6.7 -6.48)"/></svg>